<svg xmlns="http://www.w3.org/2000/svg" viewBox="0 0 87.94 27.37"><defs><style>.cls-1{fill:#fff;}</style></defs><title>theclima</title><g id="Layer_2" data-name="Layer 2"><g id="Layer_1-2" data-name="Layer 1"><path class="cls-1" d="M14.61,18.35A8.65,8.65,0,0,1,23,9.56a10.47,10.47,0,0,1,6.88,2.6l-.76.93A9.29,9.29,0,0,0,23,10.73a7.45,7.45,0,0,0-7.2,7.62A7.45,7.45,0,0,0,23.11,26a9.26,9.26,0,0,0,6.3-2.52l.81.91a10.52,10.52,0,0,1-7.1,2.79A8.64,8.64,0,0,1,14.61,18.35Z"/><path class="cls-1" d="M32.5,9.78h1.22v16H44.79v1.18H32.5Z"/><path class="cls-1" d="M47.47,26.95V9.78h1.22V26.95Z"/><path class="cls-1" d="M68.16,12c-2.23,5.1-4.56,10.26-6.79,15.36L55.11,11.89c-.47,3.63-2.47,15.06-2.47,15.06H51.38l3-17.22H55.6l5.85,14.45L67.82,9.73H69l2.74,17.22-1.25,0Z"/><path class="cls-1" d="M84.78,22.39h-8.5c-.54,1.4-1.3,3.16-1.84,4.56H73.12L80,9.73h1l6.93,17.22H86.61Zm-8-1.15h7.57l-3.77-9.41Z"/><path class="cls-1" d="M2.91,13.09H1.62v2.68a1.51,1.51,0,0,0,0,.42.59.59,0,0,0,.14.26.48.48,0,0,0,.22.13,1,1,0,0,0,.27,0,1.15,1.15,0,0,0,.29,0,1.45,1.45,0,0,0,.29-.11l0,.58a2,2,0,0,1-.37.1,2.37,2.37,0,0,1-.42,0,1.7,1.7,0,0,1-.39,0,1,1,0,0,1-.38-.19,1,1,0,0,1-.29-.37A1.44,1.44,0,0,1,1,16V13.09H0v-.56H1V11.24h.67v1.29H2.91Z"/><path class="cls-1" d="M4.65,13.29a1.38,1.38,0,0,1,.62-.64,1.89,1.89,0,0,1,.92-.24,1.61,1.61,0,0,1,1.31.52,2.06,2.06,0,0,1,.44,1.37v2.81H7.27V14.58a3.36,3.36,0,0,0-.06-.66,1.37,1.37,0,0,0-.2-.5,1,1,0,0,0-.38-.33A1.37,1.37,0,0,0,6,13a1.28,1.28,0,0,0-.51.11,1.26,1.26,0,0,0-.45.33,1.64,1.64,0,0,0-.31.56,2.44,2.44,0,0,0-.12.8v2.35H4V9.71h.67v3.58Z"/><path class="cls-1" d="M13.84,14.69v.15a1.57,1.57,0,0,1,0,.17H10a1.78,1.78,0,0,0,.14.65,1.63,1.63,0,0,0,.35.53,1.7,1.7,0,0,0,.53.36,1.75,1.75,0,0,0,1.55-.11,1.79,1.79,0,0,0,.57-.55l.5.39a2.49,2.49,0,0,1-.91.74,2.54,2.54,0,0,1-1.06.23,2.44,2.44,0,0,1-.95-.18,2.21,2.21,0,0,1-.75-.5,2.39,2.39,0,0,1-.49-.76,2.5,2.5,0,0,1-.18-1,2.56,2.56,0,0,1,.18-1A2.32,2.32,0,0,1,10,13.1a2.25,2.25,0,0,1,.74-.5,2.28,2.28,0,0,1,.91-.18,2.34,2.34,0,0,1,1,.18,2,2,0,0,1,.69.49,2.11,2.11,0,0,1,.42.72A2.68,2.68,0,0,1,13.84,14.69Zm-.68-.22a1.65,1.65,0,0,0-.42-1.07,1.41,1.41,0,0,0-1.1-.43,1.54,1.54,0,0,0-.62.12,1.63,1.63,0,0,0-.5.33,1.65,1.65,0,0,0-.34.48,1.55,1.55,0,0,0-.15.56Z"/><path class="cls-1" d="M48,9.07a2.95,2.95,0,1,0-2.95-2.95A3,3,0,0,0,48,9.07Zm0-5a2.1,2.1,0,1,1-2.1,2.1A2.09,2.09,0,0,1,48,4Z"/><path class="cls-1" d="M48.49,1.82V.44a.44.44,0,1,0-.88,0V1.81a.44.44,0,1,0,.88,0Z"/><path class="cls-1" d="M47.61,10.43v1.37a.44.44,0,1,0,.88,0V10.44a.44.44,0,1,0-.88,0Z"/><path class="cls-1" d="M51.4,3.38l1-1a.43.43,0,0,0-.61-.61l-1,1a.43.43,0,0,0,0,.61.43.43,0,0,0,.61,0Z"/><path class="cls-1" d="M43.72,10.44a.42.42,0,0,0,.31.13.44.44,0,0,0,.31-.13l1-1a.43.43,0,0,0-.61-.61l-1,1A.43.43,0,0,0,43.72,10.44Z"/><path class="cls-1" d="M53.73,5.69H52.35a.44.44,0,1,0,0,.88h1.38a.44.44,0,1,0,0-.88Z"/><path class="cls-1" d="M42.35,6.56h1.37a.44.44,0,1,0,0-.88H42.36a.44.44,0,1,0,0,.88Z"/><path class="cls-1" d="M52.05,10.57a.44.44,0,0,0,.31-.13.43.43,0,0,0,0-.61l-1-1a.43.43,0,1,0-.61.61l1,1A.44.44,0,0,0,52.05,10.57Z"/><path class="cls-1" d="M45.29,3.38a.43.43,0,0,0,0-.61l-1-1a.43.43,0,0,0-.61.61l1,1a.43.43,0,0,0,.61,0Z"/></g></g></svg>